name D:\school\WTK\thesis\model\3dpredictsim\Results\batch_windlass\Pog_s1_tmt_aCst_d00_k800_WL10_ig24_act_TTC.mot
datacolumns 128
datarows 4
range 1.79851705 1.83448740
endheader
time	pelvis_tilt	pelvis_list	pelvis_rotation	pelvis_tx	pelvis_ty	pelvis_tz	hip_flexion_l	hip_adduction_l	hip_rotation_l	hip_flexion_r	hip_adduction_r	hip_rotation_r	knee_angle_l	knee_angle_r	ankle_angle_l	ankle_angle_r	subtalar_angle_l	subtalar_angle_r	tmt_angle_l	tmt_angle_r	mtp_angle_l	mtp_angle_r	lumbar_extension	lumbar_bending	lumbar_rotation	arm_flex_l	arm_add_l	arm_rot_l	arm_flex_r	arm_add_r	arm_rot_r	elbow_flex_l	elbow_flex_r	pro_sup_l	pro_sup_r	glut_med1_l/activation	glut_med2_l/activation	glut_med3_l/activation	glut_min1_l/activation	glut_min2_l/activation	glut_min3_l/activation	semimem_l/activation	semiten_l/activation	bifemlh_l/activation	bifemsh_l/activation	sar_l/activation	add_long_l/activation	add_brev_l/activation	add_mag1_l/activation	add_mag2_l/activation	add_mag3_l/activation	tfl_l/activation	pect_l/activation	grac_l/activation	glut_max1_l/activation	glut_max2_l/activation	glut_max3_l/activation	iliacus_l/activation	psoas_l/activation	quad_fem_l/activation	gem_l/activation	peri_l/activation	rect_fem_l/activation	vas_med_l/activation	vas_int_l/activation	vas_lat_l/activation	med_gas_l/activation	lat_gas_l/activation	soleus_l/activation	tib_post_l/activation	flex_dig_l/activation	flex_hal_l/activation	tib_ant_l/activation	per_brev_l/activation	per_long_l/activation	per_tert_l/activation	ext_dig_l/activation	ext_hal_l/activation	ercspn_l/activation	intobl_l/activation	extobl_l/activation	glut_med1_r/activation	glut_med2_r/activation	glut_med3_r/activation	glut_min1_r/activation	glut_min2_r/activation	glut_min3_r/activation	semimem_r/activation	semiten_r/activation	bifemlh_r/activation	bifemsh_r/activation	sar_r/activation	add_long_r/activation	add_brev_r/activation	add_mag1_r/activation	add_mag2_r/activation	add_mag3_r/activation	tfl_r/activation	pect_r/activation	grac_r/activation	glut_max1_r/activation	glut_max2_r/activation	glut_max3_r/activation	iliacus_r/activation	psoas_r/activation	quad_fem_r/activation	gem_r/activation	peri_r/activation	rect_fem_r/activation	vas_med_r/activation	vas_int_r/activation	vas_lat_r/activation	med_gas_r/activation	lat_gas_r/activation	soleus_r/activation	tib_post_r/activation	flex_dig_r/activation	flex_hal_r/activation	tib_ant_r/activation	per_brev_r/activation	per_long_r/activation	per_tert_r/activation	ext_dig_r/activation	ext_hal_r/activation	ercspn_r/activation	intobl_r/activation	extobl_r/activation	
          1.79851705	         -2.92971891	          0.50400226	         -9.83526233	          2.24814632	          0.85265527	          0.00254724	         33.93847826	         -1.75561782	         -2.85854720	        -16.19448554	         -3.07266898	          8.00185499	        -21.41548067	        -16.98560799	         -4.31674161	         -9.59881584	          8.17408778	         18.74954094	          0.00086754	         -2.51381945	          0.29194706	         33.13622181	          0.96039657	          2.89836070	          2.92006601	        -13.90905493	        -13.84796749	         13.76726493	          2.77394010	        -13.48466799	         15.19510600	         18.92417648	         41.46372482	         86.51662706	         86.51662706	          0.05000024	          0.05000319	          0.05999147	          0.05000123	          0.05000137	          0.05000170	          0.12245309	          0.07198024	          0.12433016	          0.07198034	          0.06147658	          0.06348096	          0.07997455	          0.06142600	          0.05998045	          0.06067547	          0.05999214	          0.05000652	          0.09091858	          0.05998875	          0.05999145	          0.06671519	          0.09721296	          0.08636530	          0.17089337	          0.07197131	          0.06026699	          0.05000016	          0.05000009	          0.05000010	          0.05000008	          0.07198041	          0.07198083	          0.07198022	          0.05000037	          0.05115906	          0.05998121	          0.31750578	          0.16239226	          0.10362355	          0.11453515	          0.43420019	          0.12875462	          0.05000003	          0.17170524	          0.16048323	          0.18577570	          0.08636484	          0.07357427	          0.21014118	          0.14221375	          0.09997565	          0.05000267	          0.05000018	          0.05000018	          0.05000051	          0.12432609	          0.05000007	          0.05000007	          0.05000009	          0.05000027	          0.05000030	          0.21488706	          0.05000033	          0.05000021	          0.05009977	          0.05001201	          0.05000075	          0.38976070	          0.47262955	          0.05000029	          0.05000619	          0.06257100	          0.26011058	          0.07207810	          0.08811509	          0.08931848	          0.16330933	          0.23329593	          0.05409448	          0.17369764	          0.19033734	          0.19790522	          0.05000002	          0.52632612	          0.41221164	          0.05000021	          0.26488786	          0.05999174	          0.05000000	          0.05526258	          0.05000835	
          1.81050717	         -2.92872608	          0.47799217	        -10.05319246	          2.26748645	          0.85138966	          0.00219114	         33.54920705	         -1.55301909	         -2.66847349	        -16.38062027	         -3.37961717	          7.74962567	        -21.52615174	        -18.04456719	         -4.56644501	        -12.78445823	          7.65530030	         19.11366678	         -0.01212125	         -3.04555388	          0.35699261	         34.95553936	          1.18022274	          2.69747341	          3.00861999	        -15.38302179	        -13.82847320	         14.04753899	          2.43788305	        -13.53271036	         15.56985413	         18.94718180	         42.53785442	         86.51662706	         86.51662706	          0.10931416	          0.05000021	          0.05000017	          0.05994311	          0.05000511	          0.05000133	          0.10205830	          0.05999182	          0.10362277	          0.05999188	          0.05999186	          0.08636457	          0.10139580	          0.05119565	          0.05000048	          0.12605784	          0.05000051	          0.08626437	          0.07577603	          0.05000017	          0.05000015	          0.13286417	          0.08102247	          0.07198105	          0.14243083	          0.05998480	          0.13157043	          0.05000034	          0.17306001	          0.16513054	          0.15047729	          0.05999192	          0.05999227	          0.05999176	          0.05000000	          0.05000034	          0.05000089	          0.51459417	          0.13534548	          0.08636483	          0.50789042	          0.56462714	          0.43245732	          0.05000001	          0.14310736	          0.13375440	          0.15483455	          0.07198064	          0.06132036	          0.17514180	          0.11852783	          0.08332460	          0.05000183	          0.05000015	          0.05000013	          0.05000079	          0.10361957	          0.10158289	          0.14359786	          0.05000660	          0.05000171	          0.05000038	          0.17909721	          0.10362035	          0.05001556	          0.05000142	          0.05000081	          0.05000059	          0.32484521	          0.39391207	          0.05000026	          0.05000054	          0.05214977	          0.21678859	          0.06007353	          0.07343989	          0.07444339	          0.13610980	          0.19443998	          0.05000004	          0.14476792	          0.15863626	          0.16494368	          0.22431946	          0.51962133	          0.38029078	          0.47202899	          0.44234575	          0.05000009	          0.05000000	          0.05000019	          0.06284080	
          1.82249728	         -2.92071829	          0.46816651	        -10.22978290	          2.28705530	          0.84974981	          0.00183048	         33.08442485	         -1.28221871	         -2.40431420	        -16.37538803	         -3.66825079	          7.48083965	        -22.37628619	        -19.48097764	         -4.58802054	        -15.80103626	          7.07744052	         19.44135140	          0.00372871	         -3.44057336	          0.45257766	         35.79790448	          1.41173242	          2.45684028	          3.08331019	        -16.82903635	        -13.81346408	         14.38782008	          2.04486710	        -13.60336140	         15.91391388	         18.91657649	         43.58654030	         86.51662706	         86.51662706	          0.22245969	          0.16912070	          0.21477650	          0.05000037	          0.05000053	          0.05000348	          0.08506028	          0.05000015	          0.08636418	          0.05000012	          0.05000019	          0.07198045	          0.08450827	          0.13589164	          0.17574280	          0.13819704	          0.05000159	          0.07189776	          0.06315556	          0.15565858	          0.14772510	          0.16717238	          0.06752804	          0.05999250	          0.13248863	          0.05000030	          0.10965731	          0.05999179	          0.30893253	          0.27938493	          0.25147620	          0.05000013	          0.05000043	          0.05000000	          0.11494608	          0.05000053	          0.05000013	          0.48968079	          0.11280341	          0.07198058	          0.42330025	          0.47058731	          0.36043069	          0.05000004	          0.11927251	          0.11147731	          0.12904656	          0.05999218	          0.05685157	          0.14597162	          0.09878683	          0.06944681	          0.05873405	          0.05000344	          0.05481229	          0.05000062	          0.08636167	          0.18442308	          0.18809948	          0.28368672	          0.08863084	          0.10773949	          0.14926821	          0.08636272	          0.05999181	          0.05000862	          0.05000450	          0.05000463	          0.27074154	          0.32830515	          0.05999195	          0.05999226	          0.05999172	          0.18068197	          0.05006826	          0.06120849	          0.09522717	          0.11344042	          0.16205558	          0.05000003	          0.12065651	          0.13221508	          0.13747197	          0.38328749	          0.46974783	          0.35234675	          0.64076784	          0.52382256	          0.26243041	          0.07941577	          0.05999168	          0.05237454	
          1.83448740	         -2.90854612	          0.45886647	        -10.36185539	          2.30658404	          0.84793633	          0.00148126	         32.43302857	         -0.96128553	         -2.07725833	        -16.15221146	         -3.92091248	          7.21429995	        -23.60954538	        -21.33924908	         -4.10003959	        -18.32464707	          6.48067046	         19.71652537	          0.03907853	         -3.54512668	          0.23013177	         34.70942679	          1.63403062	          2.19846212	          3.14179549	        -18.18484837	        -13.79979926	         14.81393301	          1.64034666	        -13.68389675	         16.23417089	         18.79580425	         44.57013875	         86.51662706	         86.51662706	          0.22500962	          0.39783862	          0.56360485	          0.10726915	          0.14998386	          0.42652273	          0.07089332	          0.05999202	          0.07198007	          0.05999242	          0.05999186	          0.05999199	          0.07043328	          0.11325864	          0.14647254	          0.13467857	          0.05000009	          0.05999006	          0.05999335	          0.30309267	          0.24323863	          0.18975748	          0.05959721	          0.05000073	          0.11042252	          0.21478195	          0.32306687	          0.05000004	          0.25747927	          0.31964858	          0.30799679	          0.05000001	          0.05000004	          0.05000000	          0.16722669	          0.10528135	          0.05000490	          0.47534959	          0.09401577	          0.05999207	          0.35279871	          0.42396719	          0.36790422	          0.05954111	          0.09940741	          0.09291052	          0.14723661	          0.05000048	          0.05000008	          0.12165982	          0.08233377	          0.05788046	          0.08589028	          0.05000011	          0.05000012	          0.05000010	          0.07197809	          0.15370706	          0.19223560	          0.23643815	          0.07386975	          0.08979547	          0.12440731	          0.07197918	          0.05000102	          0.05000242	          0.05000132	          0.05000040	          0.22564895	          0.27362522	          0.05000036	          0.05000088	          0.05000012	          0.15058899	          0.08636402	          0.08635718	          0.07936703	          0.09454667	          0.13506487	          0.05999176	          0.10056091	          0.11019442	          0.11457574	          0.32038125	          0.39151035	          0.29366269	          0.55312823	          0.73536004	          0.21872208	          0.12487888	          0.05000001	          0.05000005	
